<?xml version="1.0" encoding="UTF-8" standalone="no"?>
<!-- Created with Inkscape (http://www.inkscape.org/) -->

<svg
   xmlns:dc="http://purl.org/dc/elements/1.1/"
   xmlns:cc="http://creativecommons.org/ns#"
   xmlns:rdf="http://www.w3.org/1999/02/22-rdf-syntax-ns#"
   xmlns:svg="http://www.w3.org/2000/svg"
   xmlns="http://www.w3.org/2000/svg"
   xmlns:sodipodi="http://sodipodi.sourceforge.net/DTD/sodipodi-0.dtd"
   xmlns:inkscape="http://www.inkscape.org/namespaces/inkscape"
   width="32"
   height="32"
   viewBox="0 0 32 32"
   version="1.1"
   id="svg8"
   inkscape:version="0.92.3 (2405546, 2018-03-11)"
   sodipodi:docname="icon.svg"
   inkscape:export-filename="icon16.png"
   inkscape:export-xdpi="48"
   inkscape:export-ydpi="48">
  <defs
     id="defs2" />
  <sodipodi:namedview
     id="base"
     pagecolor="#ffffff"
     bordercolor="#666666"
     borderopacity="1.0"
     inkscape:pageopacity="0.0"
     inkscape:pageshadow="2"
     inkscape:zoom="16"
     inkscape:cx="9.7090338"
     inkscape:cy="16.902472"
     inkscape:document-units="px"
     inkscape:current-layer="layer2"
     showgrid="false"
     units="px"
     inkscape:window-width="1920"
     inkscape:window-height="1170"
     inkscape:window-x="-12"
     inkscape:window-y="-12"
     inkscape:window-maximized="1" />
  <metadata
     id="metadata5">
    <rdf:RDF>
      <cc:Work
         rdf:about="">
        <dc:format>image/svg+xml</dc:format>
        <dc:type
           rdf:resource="http://purl.org/dc/dcmitype/StillImage" />
        <dc:title />
      </cc:Work>
    </rdf:RDF>
  </metadata>
  <g
     inkscape:label="Layer 1"
     inkscape:groupmode="layer"
     id="layer1"
     transform="translate(0,-288.53332)"
     sodipodi:insensitive="true"
     style="display:none">
    <path
       style="opacity:1;vector-effect:none;fill:#e2dbe3;fill-opacity:1;stroke:none;stroke-width:7.55905533;stroke-linecap:butt;stroke-linejoin:miter;stroke-miterlimit:4;stroke-dasharray:none;stroke-dashoffset:0;stroke-opacity:1"
       d="m 16.34375,2.0117188 a 14,14 0 0 0 -0.78125,0.00977 14,14 0 0 0 -0.6875,0.035156 14,14 0 0 0 -0.710938,0.080078 14,14 0 0 0 -0.677734,0.1015624 14,14 0 0 0 -0.68164,0.1464844 14,14 0 0 0 -0.744141,0.1894532 14,14 0 0 0 -0.65625,0.21875 A 14,14 0 0 0 10.736328,3.0371094 14,14 0 0 0 10.085938,3.328125 14,14 0 0 0 9.4902344,3.6152344 14,14 0 0 0 8.8515625,3.9804688 14,14 0 0 0 8.2597656,4.34375 14,14 0 0 0 7.7265625,4.7246094 14,14 0 0 0 7.1347656,5.1757812 14,14 0 0 0 6.6269531,5.6210938 14,14 0 0 0 6.1074219,6.1074219 14,14 0 0 0 5.6210938,6.6269531 14,14 0 0 0 5.1757812,7.1347656 14,14 0 0 0 4.7246094,7.7265625 14,14 0 0 0 4.34375,8.2597656 14,14 0 0 0 3.9804688,8.8515625 14,14 0 0 0 3.6152344,9.4902344 14,14 0 0 0 3.328125,10.085938 14,14 0 0 0 3.0371094,10.736328 14,14 0 0 0 2.7929688,11.404297 14,14 0 0 0 2.5742188,12.060547 14,14 0 0 0 2.3984375,12.751953 14,14 0 0 0 2.25,13.412109 14,14 0 0 0 2.140625,14.130859 14,14 0 0 0 2.0605469,14.802734 14,14 0 0 0 2,16 a 14,14 0 0 0 0.039063,0.767578 14,14 0 0 0 0.041016,0.699219 14,14 0 0 0 0.099609,0.65625 14,14 0 0 0 0.1152344,0.71875 14,14 0 0 0 0.1855469,0.726562 14,14 0 0 0 0.1621093,0.619141 14,14 0 0 0 0.2871094,0.783203 14,14 0 0 0 0.1972656,0.525391 14,14 0 0 0 0.296875,0.617187 14,14 0 0 0 0.3320313,0.669922 14,14 0 0 0 0.2832031,0.458985 14,14 0 0 0 0.4492187,0.71875 14,14 0 0 0 0.4277344,0.5625 14,14 0 0 0 0.4121094,0.535156 14,14 0 0 0 0.5566406,0.595703 14,14 0 0 0 0.4003906,0.423828 14,14 0 0 0 0.5644532,0.496094 14,14 0 0 0 0.5,0.429687 14,14 0 0 0 0.5019531,0.359375 14,14 0 0 0 0.6523437,0.457031 14,14 0 0 0 0.5390626,0.308594 A 14,14 0 0 0 9.703125,28.5 a 14,14 0 0 0 0.664063,0.296875 14,14 0 0 0 0.621093,0.271484 14,14 0 0 0 0.667969,0.222657 14,14 0 0 0 0.660156,0.21289 14,14 0 0 0 0.697266,0.15625 14,14 0 0 0 0.748047,0.154297 14,14 0 0 0 0.634765,0.07617 14,14 0 0 0 0.767578,0.08008 14,14 0 0 0 0.302735,0.0098 14,14 0 0 0 0.863281,0.0039 14,14 0 0 0 0.697266,-0.03516 14,14 0 0 0 0.707031,-0.07031 14,14 0 0 0 0.669922,-0.101562 14,14 0 0 0 0.701172,-0.138672 14,14 0 0 0 0.667969,-0.171875 14,14 0 0 0 0.68164,-0.207031 14,14 0 0 0 0.648438,-0.238282 14,14 0 0 0 0.644531,-0.269531 14,14 0 0 0 0.613281,-0.294922 14,14 0 0 0 0.660156,-0.359375 14,14 0 0 0 0.548828,-0.33789 14,14 0 0 0 0.603516,-0.410157 14,14 0 0 0 0.544922,-0.414062 14,14 0 0 0 0.552734,-0.462891 14,14 0 0 0 0.492188,-0.458984 14,14 0 0 0 0.498047,-0.509766 14,14 0 0 0 0.460937,-0.523437 14,14 0 0 0 0.4375,-0.548828 14,14 0 0 0 0.404297,-0.5625 14,14 0 0 0 0.378906,-0.589844 14,14 0 0 0 0.166016,-0.289063 l -3.457031,-1.99414 A 10,10 0 0 1 16,26 10,10 0 0 1 6,16 10,10 0 0 1 16,6 10,10 0 0 1 24.648438,11.005859 L 28.115234,9.0058594 A 14,14 0 0 0 27.804688,8.5019531 14,14 0 0 0 27.419922,7.9199219 14,14 0 0 0 26.986328,7.3476562 14,14 0 0 0 26.554688,6.8164062 14,14 0 0 0 26.070312,6.296875 14,14 0 0 0 25.583984,5.8085938 14,14 0 0 0 25.066406,5.3515625 14,14 0 0 0 24.505859,4.890625 14,14 0 0 0 23.970703,4.5097656 14,14 0 0 0 23.361328,4.1035156 14,14 0 0 0 22.748047,3.7519531 14,14 0 0 0 22.150391,3.4335938 14,14 0 0 0 21.496094,3.140625 14,14 0 0 0 20.855469,2.8789062 14,14 0 0 0 20.191406,2.6582031 14,14 0 0 0 19.525391,2.4609375 14,14 0 0 0 18.833984,2.3046875 14,14 0 0 0 18.154297,2.1757812 14,14 0 0 0 17.445312,2.0898438 14,14 0 0 0 16.708984,2.0253906 14,14 0 0 0 16.34375,2.0117188 Z"
       transform="translate(0,288.53332)"
       id="circle4577"
       inkscape:connector-curvature="0" />
    <path
       sodipodi:type="star"
       style="opacity:1;vector-effect:none;fill:#8787de;fill-opacity:1;stroke:none;stroke-width:7.55905533;stroke-linecap:butt;stroke-linejoin:miter;stroke-miterlimit:4;stroke-dasharray:none;stroke-dashoffset:0;stroke-opacity:1"
       id="path4574"
       sodipodi:sides="3"
       sodipodi:cx="25.8125"
       sodipodi:cy="312.28333"
       sodipodi:r1="3.7301557"
       sodipodi:r2="1.8650779"
       sodipodi:arg1="0.52359878"
       sodipodi:arg2="1.5707963"
       inkscape:flatsided="false"
       inkscape:rounded="0"
       inkscape:randomized="0"
       d="m 29.04291,314.1484 -3.23041,0 -3.23041,0 1.615205,-2.79761 1.615205,-2.79762 1.615205,2.79762 z"
       inkscape:transform-center-y="0.3072556"
       transform="rotate(39.482181,27.348709,311.63375)"
       inkscape:transform-center-x="0.65370424" />
  </g>
  <g
     inkscape:groupmode="layer"
     id="layer2"
     inkscape:label="Layer 2">
    <rect
       style="opacity:1;vector-effect:none;fill:#ff5555;fill-opacity:1;stroke:none;stroke-width:7.55905485;stroke-linecap:butt;stroke-linejoin:miter;stroke-miterlimit:4;stroke-dasharray:none;stroke-dashoffset:0;stroke-opacity:1"
       id="rect4652"
       width="11"
       height="5"
       x="-27.627419"
       y="9.464468"
       transform="rotate(-135)" />
    <rect
       style="opacity:1;vector-effect:none;fill:#ff7f2a;fill-opacity:1;stroke:none;stroke-width:7.55905533;stroke-linecap:butt;stroke-linejoin:miter;stroke-miterlimit:4;stroke-dasharray:none;stroke-dashoffset:0;stroke-opacity:1"
       id="rect4612"
       width="12"
       height="5"
       x="9.9852829"
       y="1.5294366" />
    <rect
       style="opacity:1;vector-effect:none;fill:#ffdd55;fill-opacity:1;stroke:none;stroke-width:7.55905485;stroke-linecap:butt;stroke-linejoin:miter;stroke-miterlimit:4;stroke-dasharray:none;stroke-dashoffset:0;stroke-opacity:1"
       id="rect4628"
       width="12"
       height="5"
       x="-6.0208139"
       y="-13.142135"
       transform="matrix(0.70710678,-0.70710678,-0.70710678,-0.70710678,0,0)" />
    <path
       sodipodi:type="star"
       style="opacity:1;vector-effect:none;fill:#ff80e5;fill-opacity:1;stroke:none;stroke-width:7.55905533;stroke-linecap:butt;stroke-linejoin:miter;stroke-miterlimit:4;stroke-dasharray:none;stroke-dashoffset:0;stroke-opacity:1"
       id="path4648"
       sodipodi:sides="3"
       sodipodi:cx="39.963649"
       sodipodi:cy="17.213401"
       sodipodi:r1="4.2168956"
       sodipodi:r2="2.1084478"
       sodipodi:arg1="2.6179939"
       sodipodi:arg2="3.6651914"
       inkscape:flatsided="false"
       inkscape:rounded="0"
       inkscape:randomized="0"
       d="m 36.311711,19.32185 1.825969,-3.162672 1.82597,-3.162672 1.825969,3.162672 1.825969,3.162672 -3.651938,0 z"
       inkscape:transform-center-y="-1.0542226" />
    <rect
       style="opacity:1;vector-effect:none;fill:#ccff00;fill-opacity:1;stroke:none;stroke-width:7.55905485;stroke-linecap:butt;stroke-linejoin:miter;stroke-miterlimit:4;stroke-dasharray:none;stroke-dashoffset:0;stroke-opacity:1"
       id="rect4624"
       width="12"
       height="5"
       x="-22.014719"
       y="1.5000015"
       transform="rotate(-90)" />
    <rect
       transform="rotate(-135)"
       y="-14.506094"
       x="-28.627419"
       height="5"
       width="12"
       id="rect4626"
       style="opacity:1;vector-effect:none;fill:#5fd35f;fill-opacity:1;stroke:none;stroke-width:7.55905485;stroke-linecap:butt;stroke-linejoin:miter;stroke-miterlimit:4;stroke-dasharray:none;stroke-dashoffset:0;stroke-opacity:1" />
    <rect
       y="25.5"
       x="9.9852829"
       height="5"
       width="12"
       id="rect4622"
       style="opacity:1;vector-effect:none;fill:#55ddff;fill-opacity:1;stroke:none;stroke-width:7.55905485;stroke-linecap:butt;stroke-linejoin:miter;stroke-miterlimit:4;stroke-dasharray:none;stroke-dashoffset:0;stroke-opacity:1" />
    <rect
       transform="matrix(0.70710678,-0.70710678,-0.70710678,-0.70710678,0,0)"
       y="-37.112698"
       x="-6.0208139"
       height="5"
       width="11"
       id="rect4650"
       style="opacity:1;vector-effect:none;fill:#5f8dd3;fill-opacity:1;stroke:none;stroke-width:7.55905485;stroke-linecap:butt;stroke-linejoin:miter;stroke-miterlimit:4;stroke-dasharray:none;stroke-dashoffset:0;stroke-opacity:1" />
  </g>
</svg>
